<?xml version="1.0" encoding="UTF-8"?>
<svg version="1.1" xmlns="http://www.w3.org/2000/svg" width="2048" height="2048">
<path d="M0 0 C1.85244214 1.68450096 3.69666124 3.3781036 5.53125 5.08203125 C7.59719186 6.99236531 9.69825579 8.8292372 11.84375 10.6484375 C20.54670334 18.24341732 28.61093444 26.51539308 35.76171875 35.5859375 C37.23373004 37.42008962 38.75847717 39.21312206 40.33203125 40.9609375 C54.94885896 57.28564948 66.98218996 76.88763665 76.96875 96.3359375 C77.29327148 96.96677246 77.61779297 97.59760742 77.95214844 98.24755859 C79.66277483 101.59201855 81.33672075 104.95246223 82.96875 108.3359375 C88.66369479 107.15287361 94.16458275 105.70745967 99.71508789 103.97558594 C180.1341177 79.12214309 269.15789263 87.78867539 343.828125 126.31640625 C368.07180798 139.14164079 390.43403213 154.78399528 410.69140625 173.28125 C412.6425116 175.04159548 414.62888544 176.72778073 416.65625 178.3984375 C420.51811562 181.6944949 423.71341075 185.45202665 426.96875 189.3359375 C427.68546875 190.16480469 428.4021875 190.99367188 429.140625 191.84765625 C441.52025026 206.35123683 452.47779779 221.80157585 461.96875 238.3359375 C462.45585449 239.17995117 462.94295898 240.02396484 463.44482422 240.89355469 C504.79505997 313.07382487 517.65659577 401.51221813 496.45983887 482.27496338 C494.40697938 489.79731805 492.11977573 497.24932075 489.72143555 504.66821289 C488.91113706 507.54013361 488.40932757 510.38658304 487.96875 513.3359375 C488.46463623 513.57078857 488.96052246 513.80563965 489.47143555 514.04760742 C515.09703957 526.2814074 538.63588852 541.5861148 559.96875 560.3359375 C560.66742187 560.93535156 561.36609375 561.53476562 562.0859375 562.15234375 C564.06743585 563.85840561 566.02113292 565.59127138 567.96875 567.3359375 C568.93167969 568.19445312 569.89460938 569.05296875 570.88671875 569.9375 C583.00952486 580.86055744 593.79715172 592.66363315 603.67333984 605.64648438 C604.92726856 607.28183807 606.2029797 608.89704832 607.48828125 610.5078125 C654.22690516 669.38800859 679.7074997 750.85713035 671.84375 825.7734375 C669.31024018 847.3327379 664.56282717 868.66093106 657.96875 889.3359375 C657.71544922 890.13692871 657.46214844 890.93791992 657.20117188 891.76318359 C643.46524036 934.56317572 620.22961417 974.81757473 589.46484375 1007.65625 C587.34963079 1009.927042 585.30153584 1012.23122793 583.28125 1014.5859375 C577.35429565 1021.401935 570.8314586 1027.48038408 563.96875 1033.3359375 C562.61910156 1034.51929688 562.61910156 1034.51929688 561.2421875 1035.7265625 C538.91539668 1055.16041684 514.33946927 1070.06821983 487.96875 1083.3359375 C488.53366673 1087.15718823 489.30420746 1090.65799004 490.60546875 1094.29296875 C491.09611816 1095.69434082 491.09611816 1095.69434082 491.59667969 1097.12402344 C491.94633789 1098.12208008 492.29599609 1099.12013672 492.65625 1100.1484375 C503.29600382 1131.47500826 508.19364928 1163.85524852 508.21875 1196.8984375 C508.21976212 1198.10906357 508.21976212 1198.10906357 508.22079468 1199.34414673 C508.12126874 1274.97176765 479.78985732 1349.22770861 428.96875 1405.3359375 C428.3794873 1405.98691406 427.79022461 1406.63789062 427.18310547 1407.30859375 C392.94645911 1444.90736974 350.5995685 1472.66329502 302.96875 1490.3359375 C302.1530957 1490.63870605 301.33744141 1490.94147461 300.49707031 1491.25341797 C279.97229775 1498.74385647 258.57257924 1503.32285114 236.96875 1506.3359375 C235.73318359 1506.51382812 235.73318359 1506.51382812 234.47265625 1506.6953125 C185.90441517 1513.39438024 134.08800875 1506.63002049 88.48046875 1489.18359375 C85.93681715 1488.17605645 85.93681715 1488.17605645 82.96875 1488.3359375 C82.25912109 1489.79 82.25912109 1489.79 81.53515625 1491.2734375 C68.51800628 1517.75844667 52.78084185 1543.23918249 32.40625 1564.75 C30.4186818 1566.85860601 28.52391481 1568.9977547 26.65625 1571.2109375 C18.75901531 1580.28234137 10.09527602 1588.75733484 0.65625 1596.20703125 C-2.1781397 1598.45229635 -4.91122006 1600.79502188 -7.65625 1603.1484375 C-65.47644517 1651.14732238 -146.56853444 1679.01766654 -221.875 1672.83984375 C-291.75586391 1666.10775907 -359.85850385 1638.07307978 -411.3515625 1589.83203125 C-413.6223545 1587.71681829 -415.92654043 1585.66872334 -418.28125 1583.6484375 C-425.09644989 1577.72217673 -431.17992114 1571.20134129 -437.03125 1564.3359375 C-438.24941406 1562.93408203 -438.24941406 1562.93408203 -439.4921875 1561.50390625 C-458.8020187 1539.16370008 -473.86332762 1514.71812487 -487.03125 1488.3359375 C-492.91997751 1489.57086693 -498.66609758 1491.05732982 -504.43969727 1492.74707031 C-531.66168137 1500.6838598 -559.65000766 1505.60019564 -588.03125 1506.3359375 C-589.21388428 1506.36880859 -589.21388428 1506.36880859 -590.42041016 1506.40234375 C-643.05052941 1507.64876457 -695.9732996 1495.9214832 -743.03125 1472.3359375 C-743.87284668 1471.91989258 -744.71444336 1471.50384766 -745.58154297 1471.07519531 C-769.84782912 1459.01141181 -792.28650412 1443.69912873 -812.52050781 1425.67919922 C-813.96005419 1424.39924056 -815.4132977 1423.13473626 -816.8671875 1421.87109375 C-822.03669805 1417.33030746 -826.66465741 1412.64665822 -831.03125 1407.3359375 C-831.48338867 1406.79614258 -831.93552734 1406.25634766 -832.40136719 1405.70019531 C-877.96878491 1351.2813431 -908.67667859 1280.34277301 -909.26953125 1208.6328125 C-909.28422203 1207.15046364 -909.28422203 1207.15046364 -909.29920959 1205.63816833 C-909.47566141 1183.20177599 -909.13510062 1161.45888731 -905.03125 1139.3359375 C-904.81162598 1138.13259766 -904.59200195 1136.92925781 -904.36572266 1135.68945312 C-901.68366013 1121.3775271 -898.14088375 1107.53268778 -893.44921875 1093.75 C-892.28932662 1090.30025161 -891.48567886 1086.959565 -891.03125 1083.3359375 C-892.000625 1082.86285156 -892.97 1082.38976563 -893.96875 1081.90234375 C-920.61619658 1068.80188557 -944.65138984 1052.88101538 -967.03125 1033.3359375 C-968.23394531 1032.30146484 -968.23394531 1032.30146484 -969.4609375 1031.24609375 C-981.61095451 1020.58926065 -993.10532699 1009.09500819 -1003.03125 996.3359375 C-1004.46734702 994.62642459 -1005.90490018 992.91813409 -1007.34375 991.2109375 C-1055.2817065 932.37042492 -1083.85143669 850.60769504 -1076.2109375 774.48461914 C-1068.95794628 711.05470321 -1044.8766758 649.0701024 -1003.03125 600.3359375 C-1002.20238281 599.32402344 -1001.37351562 598.31210937 -1000.51953125 597.26953125 C-989.19396569 583.54898986 -976.58519683 570.16168026 -962.5 559.25 C-959.75556826 557.12219691 -957.15704372 554.85825899 -954.53125 552.5859375 C-939.53724679 540.06818709 -922.58074956 529.89596366 -905.53125 520.4609375 C-904.66959229 519.98382324 -903.80793457 519.50670898 -902.92016602 519.01513672 C-902.10088623 518.5667041 -901.28160645 518.11827148 -900.4375 517.65625 C-899.70853516 517.25680176 -898.97957031 516.85735352 -898.22851562 516.44580078 C-895.87737237 515.2582122 -893.48895277 514.28050237 -891.03125 513.3359375 C-891.60077141 508.79455902 -892.83700302 504.72037901 -894.3034668 500.41235352 C-899.08631686 486.2959929 -902.35719813 471.98730903 -905.03125 457.3359375 C-905.24442871 456.18673828 -905.45760742 455.03753906 -905.67724609 453.85351562 C-911.53061366 420.85927558 -911.99667773 384.33187733 -906.03125 351.3359375 C-905.82725586 350.18899414 -905.62326172 349.04205078 -905.41308594 347.86035156 C-894.57683127 288.53698359 -869.56125451 233.04493957 -829.32714844 187.79931641 C-828.1342738 186.45227598 -826.96070137 185.08820748 -825.7890625 183.72265625 C-821.52962702 178.79198678 -817.01912297 174.51657379 -812.03125 170.3359375 C-811.11988281 169.53671875 -810.20851563 168.7375 -809.26953125 167.9140625 C-751.5093751 117.49590528 -675.07316693 90.04006748 -598.65625 90.1484375 C-597.86545044 90.14904175 -597.07465088 90.149646 -596.2598877 90.15026855 C-558.32104773 90.22863484 -521.9487925 97.22112927 -486.03125 109.3359375 C-485.67160156 108.11970703 -485.67160156 108.11970703 -485.3046875 106.87890625 C-475.80887824 80.45958418 -456.53755743 55.13403853 -438.03125 34.3359375 C-437.38269043 33.60125244 -436.73413086 32.86656738 -436.06591797 32.10961914 C-430.45262267 25.80131495 -424.62429011 19.74586588 -418.65625 13.7734375 C-417.78742187 12.89236328 -416.91859375 12.01128906 -416.0234375 11.10351562 C-410.00971424 5.07644831 -403.70779565 -0.38553978 -397.03125 -5.6640625 C-395.97129969 -6.52206812 -394.91139194 -7.38012634 -393.8515625 -8.23828125 C-379.73332864 -19.30779504 -364.68558247 -29.20681992 -348.86816406 -37.67138672 C-347.08374818 -38.63569227 -345.31879164 -39.63573831 -343.5546875 -40.63671875 C-310.75372872 -59.09843552 -273.11240025 -69.47788764 -236.03125 -74.6640625 C-235.19207031 -74.78265625 -234.35289062 -74.90125 -233.48828125 -75.0234375 C-151.78064011 -86.07567881 -61.23010449 -54.45792671 0 0 Z M73.75390625 466.5390625 C72.84095153 467.54983379 71.93380806 468.56587188 71.03125 469.5859375 C70.03269595 470.695442 69.03399399 471.80481339 68.03515625 472.9140625 C67.52484863 473.48447266 67.01454102 474.05488281 66.48876953 474.64257812 C64.16960077 477.22622003 61.81887246 479.78048097 59.46875 482.3359375 C58.55190614 483.33577505 57.63524008 484.33577566 56.71875 485.3359375 C48.46875 494.3359375 48.46875 494.3359375 40.21875 503.3359375 C39.76508057 503.83085693 39.31141113 504.32577637 38.84399414 504.83569336 C37.92654315 505.83653418 37.00906264 506.83734795 36.09155273 507.83813477 C33.81164449 510.32505011 31.53223707 512.81242065 29.25390625 515.30078125 C23.99936651 521.03849706 18.73128712 526.76338767 13.45166016 532.47802734 C8.73013303 537.59034365 4.0270533 542.71941467 -0.67236328 547.85205078 C-2.95767496 550.34758157 -5.2445458 552.84168277 -7.53125 555.3359375 C-8.44792404 556.33593075 -9.3645907 557.33593074 -10.28125 558.3359375 C-15.78125 564.3359375 -21.28125 570.3359375 -26.78125 576.3359375 C-27.23491943 576.83085693 -27.68858887 577.32577637 -28.15600586 577.83569336 C-29.07345685 578.83653418 -29.99093736 579.83734795 -30.90844727 580.83813477 C-33.18835551 583.32505011 -35.46776293 585.81242065 -37.74609375 588.30078125 C-43.00063349 594.03849706 -48.26871288 599.76338767 -53.54833984 605.47802734 C-58.26986697 610.59034365 -62.9729467 615.71941467 -67.67236328 620.85205078 C-69.95767496 623.34758157 -72.2445458 625.84168277 -74.53125 628.3359375 C-75.44792404 629.33593075 -76.3645907 630.33593074 -77.28125 631.3359375 C-85.53125 640.3359375 -85.53125 640.3359375 -93.78125 649.3359375 C-94.23491943 649.83085693 -94.68858887 650.32577637 -95.15600586 650.83569336 C-96.07345685 651.83653418 -96.99093736 652.83734795 -97.90844727 653.83813477 C-100.18835551 656.32505011 -102.46776293 658.81242065 -104.74609375 661.30078125 C-110.00063349 667.03849706 -115.26871288 672.76338767 -120.54833984 678.47802734 C-125.26986697 683.59034365 -129.9729467 688.71941467 -134.67236328 693.85205078 C-136.95767496 696.34758157 -139.2445458 698.84168277 -141.53125 701.3359375 C-142.44792404 702.33593075 -143.3645907 703.33593074 -144.28125 704.3359375 C-149.78125 710.3359375 -155.28125 716.3359375 -160.78125 722.3359375 C-161.46175415 723.07831665 -161.46175415 723.07831665 -162.15600586 723.83569336 C-163.07345685 724.83653418 -163.99093736 725.83734795 -164.90844727 726.83813477 C-167.18835551 729.32505011 -169.46776293 731.81242065 -171.74609375 734.30078125 C-177.00063349 740.03849706 -182.26871288 745.76338767 -187.54833984 751.47802734 C-192.26986697 756.59034365 -196.9729467 761.71941467 -201.67236328 766.85205078 C-203.95767496 769.34758157 -206.2445458 771.84168277 -208.53125 774.3359375 C-209.44792404 775.33593075 -210.3645907 776.33593074 -211.28125 777.3359375 C-219.53125 786.3359375 -219.53125 786.3359375 -227.78125 795.3359375 C-228.46175415 796.07831665 -228.46175415 796.07831665 -229.15600586 796.83569336 C-230.07345685 797.83653418 -230.99093736 798.83734795 -231.90844727 799.83813477 C-234.18835551 802.32505011 -236.46776293 804.81242065 -238.74609375 807.30078125 C-244.00063349 813.03849706 -249.26871288 818.76338767 -254.54833984 824.47802734 C-259.26986697 829.59034365 -263.9729467 834.71941467 -268.67236328 839.85205078 C-270.95767496 842.34758157 -273.2445458 844.84168277 -275.53125 847.3359375 C-276.44792404 848.33593075 -277.3645907 849.33593074 -278.28125 850.3359375 C-283.78125 856.3359375 -289.28125 862.3359375 -294.78125 868.3359375 C-295.46175415 869.07831665 -295.46175415 869.07831665 -296.15600586 869.83569336 C-297.07345685 870.83653418 -297.99093736 871.83734795 -298.90844727 872.83813477 C-301.18835551 875.32505011 -303.46776293 877.81242065 -305.74609375 880.30078125 C-306.65363094 881.29168031 -307.56118303 882.28256571 -308.46875 883.2734375 C-309.13898193 884.00554443 -309.13898193 884.00554443 -309.82275391 884.75244141 C-312.27854625 887.43252302 -314.74201179 890.10515769 -317.21484375 892.76953125 C-317.74730713 893.34388916 -318.27977051 893.91824707 -318.82836914 894.51000977 C-319.84578146 895.6067623 -320.86440886 896.70238949 -321.88452148 897.79663086 C-325.05596649 901.21668836 -328.07168208 904.73064567 -331.03125 908.3359375 C-334.43101734 907.751096 -336.06935701 906.67176563 -338.49074173 904.24558926 C-339.16055108 903.58175305 -339.83036044 902.91791684 -340.52046704 902.23396438 C-341.24809585 901.49759705 -341.97572466 900.76122971 -342.72540283 900.00254822 C-343.50469548 899.22581884 -344.28398813 898.44908947 -345.0868957 897.64882284 C-347.70737322 895.03330332 -350.31695537 892.40717408 -352.92675781 889.78100586 C-354.79860435 887.90831349 -356.67103574 886.03622371 -358.54421997 884.16487122 C-362.58153291 880.12913227 -366.61331133 876.08793147 -370.64139557 872.0429821 C-376.46535056 866.19465877 -382.29755978 860.35462484 -388.13182482 854.51658887 C-397.59701575 845.04483006 -407.0554861 835.56638941 -416.50976562 826.08374023 C-425.69440366 816.87157035 -434.88218343 807.66255272 -444.07421875 798.45776367 C-444.92393615 797.60686402 -444.92393615 797.60686402 -445.79081956 796.73877447 C-448.63265894 793.89302001 -451.47456033 791.04732749 -454.31649256 788.20166576 C-477.89770102 764.58935089 -501.46801676 740.96619019 -525.03125 717.3359375 C-526.14416902 718.28315703 -527.25612946 719.23150289 -528.36769104 720.18031502 C-528.98701791 720.70830259 -529.60634478 721.23629017 -530.24443913 721.78027737 C-532.63324558 723.86005594 -534.88068066 726.05815786 -537.12109375 728.29638672 C-537.57904327 728.75258392 -538.0369928 729.20878113 -538.50881958 729.67880249 C-539.99796029 731.16359968 -541.48348028 732.65195639 -542.96875 734.140625 C-544.0180023 735.18920199 -545.06740287 736.23763065 -546.11694336 737.28591919 C-548.30712869 739.47463758 -550.49551448 741.66513498 -552.68261719 743.85693359 C-555.4662286 746.64623455 -558.25429706 749.43103019 -561.04374695 752.21449089 C-563.20932139 754.37642643 -565.37247721 756.54076944 -567.53494263 758.70581436 C-568.56111567 759.73264786 -569.58801361 760.75875754 -570.61569214 761.78408432 C-577.17828886 768.31506489 -577.17828886 768.31506489 -583.37915039 775.18603516 C-588.70054511 781.38697651 -594.61598958 787.04305677 -600.40234375 792.8046875 C-601.69293285 794.09340822 -602.9832989 795.38235235 -604.27345276 796.67150879 C-607.64625184 800.04051578 -611.02204462 803.40650705 -614.39849854 806.77185059 C-617.85278745 810.21585373 -621.30419685 813.66273999 -624.75585938 817.109375 C-631.51152913 823.85436589 -638.27036934 830.59617008 -645.03125 837.3359375 C-639.30995746 844.32816761 -632.89139799 850.61210557 -626.50296021 856.98448181 C-625.21475557 858.27312283 -623.92677084 859.56198371 -622.63898647 860.85104471 C-619.10889579 864.38336707 -615.57570196 867.91257105 -612.04198647 871.44126666 C-608.22838331 875.25054645 -604.41767557 879.06272082 -600.60661316 882.87454224 C-594.00635528 889.47532415 -587.40427073 896.07427443 -580.80093765 902.6719799 C-571.25365893 912.21112739 -561.70914669 921.75303897 -552.16530477 931.2956248 C-536.68051833 946.77822328 -521.19350061 962.25858783 -505.70507812 977.73754883 C-490.66061153 992.7728347 -475.61719685 1007.80917177 -460.57519531 1022.84692383 C-459.64781603 1023.77404039 -458.72043674 1024.70115695 -457.76495506 1025.65636795 C-453.1125155 1030.30750246 -448.46009661 1034.95865764 -443.807688 1039.60982311 C-405.21874603 1078.18840042 -366.62618213 1116.76335295 -328.03125 1155.3359375 C-321.38653978 1152.14668202 -316.98476408 1146.33533082 -312.23828125 1140.828125 C-309.27327261 1137.48002674 -306.21512833 1134.22317504 -303.15625 1130.9609375 C-298.45943367 1125.94956375 -293.80897499 1120.90529724 -289.23046875 1115.78515625 C-285.33527917 1111.44717425 -281.3828127 1107.16141176 -277.43847656 1102.86816406 C-275.13416448 1100.35916638 -272.83283909 1097.84743282 -270.53125 1095.3359375 C-269.61459808 1094.33592398 -268.6979314 1093.33592399 -267.78125 1092.3359375 C-267.100625 1091.5934375 -267.100625 1091.5934375 -266.40625 1090.8359375 C-229.28125 1050.3359375 -229.28125 1050.3359375 -227.90576172 1048.83544922 C-226.99066367 1047.83713089 -226.07562445 1046.83875864 -225.16064453 1045.84033203 C-222.84546148 1043.3141533 -220.5292099 1040.78896918 -218.2109375 1038.265625 C-213.98358249 1033.66243985 -209.76598917 1029.05179974 -205.59375 1024.3984375 C-201.13481085 1019.43081367 -196.60686669 1014.52910498 -192.07421875 1009.62890625 C-189.19730238 1006.51810909 -186.33075383 1003.39795405 -183.46875 1000.2734375 C-182.79416748 999.53697998 -182.79416748 999.53697998 -182.10595703 998.78564453 C-181.20062398 997.79709235 -180.29535037 996.80848573 -179.39013672 995.81982422 C-177.10482504 993.32429343 -174.8179542 990.83019223 -172.53125 988.3359375 C-171.61457596 987.33594425 -170.6979093 986.33594426 -169.78125 985.3359375 C-142.28125 955.3359375 -142.28125 955.3359375 -140.90576172 953.83544922 C-139.99066367 952.83713089 -139.07562445 951.83875864 -138.16064453 950.84033203 C-135.84546148 948.3141533 -133.5292099 945.78896918 -131.2109375 943.265625 C-126.98358249 938.66243985 -122.76598917 934.05179974 -118.59375 929.3984375 C-114.13481085 924.43081367 -109.60686669 919.52910498 -105.07421875 914.62890625 C-102.19730238 911.51810909 -99.33075383 908.39795405 -96.46875 905.2734375 C-95.79416748 904.53697998 -95.79416748 904.53697998 -95.10595703 903.78564453 C-94.20062398 902.79709235 -93.29535037 901.80848573 -92.39013672 900.81982422 C-90.10482504 898.32429343 -87.8179542 895.83019223 -85.53125 893.3359375 C-84.61457596 892.33594425 -83.6979093 891.33594426 -82.78125 890.3359375 C-66.28124999 872.33593749 -66.28124999 872.33593749 -64.90576172 870.83544922 C-63.99066367 869.83713089 -63.07562445 868.83875864 -62.16064453 867.84033203 C-59.84546148 865.3141533 -57.5292099 862.78896918 -55.2109375 860.265625 C-50.98358249 855.66243985 -46.76598917 851.05179974 -42.59375 846.3984375 C-38.13481085 841.43081367 -33.60686669 836.52910498 -29.07421875 831.62890625 C-26.19730238 828.51810909 -23.33075383 825.39795405 -20.46875 822.2734375 C-19.79416748 821.53697998 -19.79416748 821.53697998 -19.10595703 820.78564453 C-18.20062398 819.79709235 -17.29535037 818.80848573 -16.39013672 817.81982422 C-14.10482504 815.32429343 -11.8179542 812.83019223 -9.53125 810.3359375 C-8.61457596 809.33594425 -7.6979093 808.33594426 -6.78125 807.3359375 C20.71875 777.3359375 20.71875 777.3359375 22.09423828 775.83544922 C23.00933633 774.83713089 23.92437555 773.83875864 24.83935547 772.84033203 C27.15453852 770.3141533 29.4707901 767.78896918 31.7890625 765.265625 C36.01641751 760.66243985 40.23401083 756.05179974 44.40625 751.3984375 C48.86518915 746.43081367 53.39313331 741.52910498 57.92578125 736.62890625 C60.80269762 733.51810909 63.66924617 730.39795405 66.53125 727.2734375 C67.20583252 726.53697998 67.20583252 726.53697998 67.89404297 725.78564453 C68.79937602 724.79709235 69.70464963 723.80848573 70.60986328 722.81982422 C72.89517496 720.32429343 75.1820458 717.83019223 77.46875 715.3359375 C78.38542404 714.33594425 79.3020907 713.33594426 80.21875 712.3359375 C96.71874999 694.33593751 96.71874999 694.33593751 98.09423828 692.83544922 C99.00933633 691.83713089 99.92437555 690.83875864 100.83935547 689.84033203 C103.15453852 687.3141533 105.4707901 684.78896918 107.7890625 682.265625 C112.01641751 677.66243985 116.23401083 673.05179974 120.40625 668.3984375 C124.86518915 663.43081367 129.39313331 658.52910498 133.92578125 653.62890625 C136.80269762 650.51810909 139.66924617 647.39795405 142.53125 644.2734375 C143.20583252 643.53697998 143.20583252 643.53697998 143.89404297 642.78564453 C144.79937602 641.79709235 145.70464963 640.80848573 146.60986328 639.81982422 C148.89517496 637.32429343 151.1820458 634.83019223 153.46875 632.3359375 C154.38542404 631.33594425 155.3020907 630.33594426 156.21875 629.3359375 C172.71875 611.3359375 172.71875 611.3359375 174.09423828 609.83544922 C175.00933633 608.83713089 175.92437555 607.83875864 176.83935547 606.84033203 C179.15453852 604.3141533 181.4707901 601.78896918 183.7890625 599.265625 C189.55321745 592.98907853 195.28191489 586.68272632 200.96875 580.3359375 C199.55335657 577.1119858 197.85460072 574.97926958 195.34375 572.5234375 C194.71210937 571.89824219 194.08046875 571.27304687 193.4296875 570.62890625 C191.37777829 568.71704799 189.29591787 566.86666971 187.1796875 565.02734375 C183.09934852 561.47565664 179.14921977 557.80192052 175.21875 554.0859375 C169.52768096 548.72719366 163.79971552 543.41563871 158.02734375 538.14453125 C154.48412135 534.90037411 150.97711194 531.61769653 147.46875 528.3359375 C141.98070492 523.2034383 136.46279746 518.10619452 130.91796875 513.03515625 C123.03997378 505.82496482 115.20764615 498.56639235 107.40625 491.2734375 C101.88765314 486.11597581 96.35043351 480.98064952 90.76953125 475.890625 C88.86452669 474.15300578 86.96631949 472.40791141 85.07421875 470.65625 C84.17316406 469.82867188 83.27210938 469.00109375 82.34375 468.1484375 C81.54710937 467.41238281 80.75046875 466.67632813 79.9296875 465.91796875 C76.95512339 463.51817101 76.47155287 463.83579496 73.75390625 466.5390625 Z " fill="#1C9BF0" transform="translate(1226.03125,225.6640625)"/>
</svg>
